<mxfile host="app.diagrams.net" modified="2022-01-24T07:31:25.988Z" agent="5.0 (Windows NT 10.0; Win64; x64) AppleWebKit/537.36 (KHTML, like Gecko) Chrome/97.0.4692.99 Safari/537.36 Edg/97.0.1072.69" etag="OpUwq6_5s5A0gk1tdqI7" version="16.4.5" type="github">
  <diagram id="IZzq95hcnhcY-0Z1O0K-" name="Page-1">
    <mxGraphModel dx="1161" dy="767" grid="1" gridSize="10" guides="1" tooltips="1" connect="1" arrows="1" fold="1" page="1" pageScale="1" pageWidth="827" pageHeight="1169" background="none" math="0" shadow="0">
      <root>
        <mxCell id="0" />
        <mxCell id="1" parent="0" />
      </root>
    </mxGraphModel>
  </diagram>
</mxfile>
